<?xml version="1.0" encoding="UTF-8"?>
<svg version="1.1" xmlns="http://www.w3.org/2000/svg" width="180" height="180">
<path d="M0 0 C4.01501864 2.36127423 6.81368849 5.73076933 9.5625 9.4375 C10.42875 8.9425 11.295 8.4475 12.1875 7.9375 C18.68450212 5.19079991 26.55965173 5.23664552 33.2578125 7.24609375 C39.19134146 10.15251726 42.53645648 14.66640271 45.5625 20.4375 C46.54552082 23.38656245 46.79228654 25.53848177 46.875 28.625 C46.93107422 29.97658203 46.93107422 29.97658203 46.98828125 31.35546875 C45.66896609 40.9053739 38.93454875 46.55659028 32.3125 52.9375 C31.37664062 53.8553125 30.44078125 54.773125 29.4765625 55.71875 C27.18072861 57.96773014 24.87606568 60.20678929 22.5625 62.4375 C27.23716337 68.06053757 32.24015667 73.23491554 37.4375 78.375 C38.613125 79.54385742 38.613125 79.54385742 39.8125 80.73632812 C41.72688581 82.63904085 43.64358034 84.53936171 45.5625 86.4375 C48.62601033 85.07765947 50.65077402 83.56138629 52.953125 81.13671875 C53.58089844 80.48896484 54.20867187 79.84121094 54.85546875 79.17382812 C56.14685029 77.8218728 57.43596498 76.46774807 58.72265625 75.11132812 C65.04670022 68.60052522 71.35999353 63.37663628 80.75 63.125 C87.74068353 63.19887777 92.03469241 65.31184362 97.3125 69.75 C102.900238 76.42424261 104.15429065 80.530372 103.90234375 89.2578125 C103.4540377 93.45230822 102.35288533 96.63293116 100.5625 100.4375 C101.10519531 100.86160156 101.64789063 101.28570312 102.20703125 101.72265625 C107.91313091 106.40062985 111.06109335 110.03879624 111.90625 117.453125 C112.41044593 128.29333752 108.59525146 134.60100552 101.5625 142.4375 C101.995625 142.86160156 102.42875 143.28570312 102.875 143.72265625 C105.89180743 146.90008075 107.43851259 148.70597427 108.1875 153.125 C107.5625 156.4375 107.5625 156.4375 106 158.875 C102.49943832 161.11894979 100.66725544 161.12162591 96.5625 160.4375 C93.67001122 158.6847835 91.10789647 156.65893692 88.5625 154.4375 C88.06621094 154.90800781 87.56992188 155.37851563 87.05859375 155.86328125 C79.95471702 162.37404493 74.25012359 165.07350558 64.49609375 164.78125 C58.13875735 164.03631578 54.21945511 161.45349737 50.0625 156.6875 C49.21529764 155.61497787 48.37662802 154.5353393 47.5625 153.4375 C46.386875 153.911875 45.21125 154.38625 44 154.875 C36.8559467 157.50701964 30.75543412 158.09925703 23.5625 155.4375 C17.58215284 152.35606439 14.1229612 148.19853771 11.40625 142.0859375 C9.08843735 134.81058111 10.21021413 128.17306611 13.5625 121.4375 C15.26467549 119.06462855 17.19903312 117.01123402 19.25 114.9375 C20.04422363 114.10665894 20.04422363 114.10665894 20.85449219 113.2590332 C22.41071419 111.63840116 23.98299469 110.03541327 25.5625 108.4375 C26.40941406 107.57511719 27.25632812 106.71273437 28.12890625 105.82421875 C29.92642506 104.01383755 31.73454769 102.21706534 33.5625 100.4375 C31.99967018 96.67146131 29.6561525 94.30110849 26.7734375 91.453125 C26.31015045 90.99266785 25.8468634 90.53221069 25.36953735 90.05780029 C23.89684102 88.59624922 22.41732597 87.14182832 20.9375 85.6875 C19.93443678 84.69447389 18.93182743 83.70098911 17.9296875 82.70703125 C15.47919165 80.27852059 13.0225333 77.85635325 10.5625 75.4375 C6.81671504 78.54693539 3.24761734 81.682986 -0.12109375 85.19921875 C-0.73919922 85.84310547 -1.35730469 86.48699219 -1.99414062 87.15039062 C-3.25206364 88.47101385 -4.50205723 89.79923395 -5.74414062 91.13476562 C-10.70680227 96.26267719 -14.92683916 98.62962045 -22.0546875 99.90625 C-29.6022467 100.01071449 -35.74915943 97.8743628 -41.328125 92.67578125 C-45.37358929 87.83497082 -47.16494999 82.72561805 -47.4375 76.4375 C-46.90628674 71.51596541 -45.47379377 66.9464362 -43.4375 62.4375 C-44.25154297 61.80134766 -44.25154297 61.80134766 -45.08203125 61.15234375 C-49.72887 57.34277324 -52.86621092 54.42803963 -54.4375 48.4375 C-55.20625839 40.38750146 -54.90292681 33.77313399 -49.6796875 27.23828125 C-47.97414619 25.25999143 -46.23435174 23.33280937 -44.4375 21.4375 C-44.870625 20.92960937 -45.30375 20.42171875 -45.75 19.8984375 C-50.26496226 14.31744249 -50.26496226 14.31744249 -51.0625 10.25 C-50.25006629 6.59404832 -49.26949812 4.90642144 -46.4375 2.4375 C-42.69308054 1.64541127 -40.50442058 1.78912619 -37.20703125 3.79296875 C-35.21635807 5.27628452 -33.3074962 6.80550332 -31.4375 8.4375 C-30.54998047 7.60605469 -30.54998047 7.60605469 -29.64453125 6.7578125 C-28.85433594 6.03335937 -28.06414063 5.30890625 -27.25 4.5625 C-26.47269531 3.84320312 -25.69539063 3.12390625 -24.89453125 2.3828125 C-18.11688655 -2.98327186 -7.85616007 -3.5337554 0 0 Z M-24.6484375 24.32617188 C-25.14698242 24.82689209 -25.64552734 25.3276123 -26.15917969 25.84350586 C-27.68824745 27.37574901 -29.23020977 28.89414428 -30.7734375 30.41210938 C-31.75080977 31.38720985 -32.72740006 32.36309489 -33.703125 33.33984375 C-35.03005371 34.66230103 -35.03005371 34.66230103 -36.38378906 36.01147461 C-38.34126404 38.32381756 -39.17804301 39.46593128 -39.4375 42.4375 C-38.66502676 45.3869433 -38.07283435 46.95552221 -35.625 48.8125 C-32.78962671 49.62260666 -31.24448535 49.32751975 -28.4375 48.4375 C-27.633125 47.90125 -26.82875 47.365 -26 46.8125 C-23.4375 45.4375 -23.4375 45.4375 -20.3125 45.5 C-17.4375 46.4375 -17.4375 46.4375 -15.5 48.0625 C-13.88900097 51.66355667 -14.40850854 53.6321731 -15.4375 57.4375 C-17.65785583 60.28516417 -20.26187753 62.64707568 -22.9375 65.0625 C-24.33187144 66.33662289 -25.71768491 67.62019012 -27.09375 68.9140625 C-27.71056641 69.47174316 -28.32738281 70.02942383 -28.96289062 70.60400391 C-30.79901148 72.88699523 -31.19474554 74.53542818 -31.4375 77.4375 C-30.2959081 79.7206838 -29.24737317 81.62762683 -27.4375 83.4375 C-24.73737653 84.11100769 -24.73737653 84.11100769 -21.4375 83.4375 C-19.63141875 82.19930725 -19.63141875 82.19930725 -17.85717773 80.52148438 C-16.80226639 79.56375122 -16.80226639 79.56375122 -15.7260437 78.58666992 C-8.52981466 71.82869585 -1.525464 64.87413979 5.48266602 57.92236328 C7.4987831 55.92416397 9.52311255 53.93486559 11.55493164 51.95263672 C14.50023973 49.07906592 17.42063674 46.18133608 20.33984375 43.28125 C21.25015854 42.39876587 22.16047333 41.51628174 23.09837341 40.60705566 C28.17976787 35.78041899 28.17976787 35.78041899 30.74438477 29.47070312 C30.82676953 26.36563461 30.82676953 26.36563461 28.875 24.0625 C25.97019973 21.97932201 25.97019973 21.97932201 22.5625 21.4375 C17.80531822 23.7656614 14.49927924 27.30277204 10.875 31.0625 C9.72751035 32.24437614 8.57786933 33.42416844 7.42578125 34.6015625 C6.92344971 35.12186035 6.42111816 35.6421582 5.90356445 36.17822266 C3.78106785 38.17127517 2.56846029 38.43699274 -0.375 38.6875 C-3.4375 38.4375 -3.4375 38.4375 -5.25 37.25 C-6.87632434 34.76771549 -7.37061735 33.44721918 -7.4375 30.4375 C-6.79705829 29.1014061 -6.10373639 27.79006037 -5.375 26.5 C-3.71165903 23.43899057 -3.398069 22.736049 -3.875 19.125 C-5.67825857 16.02339525 -7.20895946 14.92759563 -10.4375 13.4375 C-15.81539911 13.4375 -21.13500728 20.83272634 -24.6484375 24.32617188 Z M72.30737305 83.99560547 C71.82042465 84.48007141 71.33347626 84.96453735 70.83177185 85.46368408 C69.23115384 87.06338623 67.65291938 88.68337579 66.07421875 90.3046875 C64.9654203 91.4221432 63.85535977 92.5383479 62.74409485 93.65335083 C59.8259921 96.58866845 56.92677511 99.54199267 54.03070068 102.49902344 C51.65986544 104.91349668 49.27600622 107.31487345 46.89132977 109.71566582 C44.05215876 112.57442355 41.21851822 115.4386293 38.38671875 118.3046875 C37.84483099 118.85300106 37.30294323 119.40131462 36.74463463 119.96624374 C35.21700502 121.51481386 33.69313487 123.06697468 32.1706543 124.62060547 C30.86876411 125.94631058 30.86876411 125.94631058 29.54057312 127.29879761 C27.13211321 129.90283632 26.6143262 130.82854212 26.3125 134.375 C26.30161203 137.38166074 26.30161203 137.38166074 27.8125 139.25 C29.90339397 140.66882091 31.01883319 141.29214761 33.5625 141.4375 C39.72281195 139.008577 43.31531958 134.81778761 47.61914062 130 C50.55555397 126.88380625 52.0558873 125.56796724 56.32421875 124.46875 C59.5625 124.4375 59.5625 124.4375 61.9375 125.5625 C64.08111611 128.03590321 64.5625 129.13435341 64.5625 132.4375 C63.61535737 134.52205944 62.52790943 136.50105567 61.43359375 138.51171875 C60.36143941 140.51251007 60.36143941 140.51251007 60.625 143.25 C61.97536839 146.40085958 63.33495674 147.86464648 66.4375 149.3125 C69.55792018 149.49605413 70.98829996 148.17329027 73.5625 146.4375 C76.92901507 143.43058704 80.10010225 140.22946461 83.28417969 137.03149414 C84.81324745 135.49925099 86.35520977 133.98085572 87.8984375 132.46289062 C88.87580977 131.48779015 89.85240006 130.51190511 90.828125 129.53515625 C91.71274414 128.65351807 92.59736328 127.77187988 93.50878906 126.86352539 C95.46050177 124.55798935 96.34064219 123.41094539 96.5625 120.4375 C95.19408996 117.05672225 94.03725284 115.71351909 90.875 113.875 C86.69815849 113.32334169 85.01277959 114.52045275 81.453125 116.53125 C79.5625 117.4375 79.5625 117.4375 76.75 117.375 C74.27405292 116.31387982 73.04612236 115.70197624 71.5625 113.4375 C70.9375 110.75 70.9375 110.75 71.5625 107.4375 C74.20160609 103.54050222 77.61340175 100.34851245 80.99609375 97.1015625 C82.20458984 95.93753906 82.20458984 95.93753906 83.4375 94.75 C84.19804687 94.04488281 84.95859375 93.33976562 85.7421875 92.61328125 C87.81328227 90.13774523 88.34921879 88.63671808 88.5625 85.4375 C86.81136475 81.72488773 86.81136475 81.72488773 83.5625 79.4375 C78.07171813 78.75544767 76.12395622 80.13390349 72.30737305 83.99560547 Z " fill="#000000" transform="translate(61.4375,8.5625)"/>
</svg>
